<?xml version="1.0" encoding="UTF-8" standalone="no"?>
<!DOCTYPE svg PUBLIC "-//W3C//DTD SVG 1.1//EN" "http://www.w3.org/Graphics/SVG/1.1/DTD/svg11.dtd">
<svg width="100%" height="100%" viewBox="0 0 100 100" version="1.1" xmlns="http://www.w3.org/2000/svg" xmlns:xlink="http://www.w3.org/1999/xlink" xml:space="preserve" xmlns:serif="http://www.serif.com/" style="fill-rule:evenodd;clip-rule:evenodd;stroke-linejoin:round;stroke-miterlimit:2;">
    <path d="M100,20.037L100,79.963C100,91.022 91.022,100 79.963,100L20.037,100C8.978,100 0,91.022 0,79.963L0,20.037C0,8.978 8.978,0 20.037,0L79.963,0C91.022,0 100,8.978 100,20.037Z" style="fill:rgb(22,31,52);"/>
    <g>
        <clipPath id="_clip1">
            <rect x="24.733" y="21.817" width="49.019" height="54.85"/>
        </clipPath>
        <g clip-path="url(#_clip1)">
            <path d="M73.737,42.544L73.737,21.816L52.348,21.816L52.348,22.308C63.429,22.594 72.457,31.668 73.36,42.544L73.737,42.544Z" style="fill:rgb(127,200,255);fill-rule:nonzero;"/>
            <path d="M49.765,21.816L24.729,21.816L24.729,64.023C24.729,71.817 30.74,76.666 40.417,76.666L73.748,76.666L73.748,45.83L49.765,45.83L49.765,21.816Z" style="fill:rgb(127,200,255);fill-rule:nonzero;"/>
        </g>
    </g>
</svg>
